Coordinates
version=1
nRows=7
nColumns=46
inDegrees=yes

Units are S.I. units (second, meters, Newtons, ...)
Angles are in degrees.

endheader
time	pelvis_tilt	pelvis_list	pelvis_rotation	pelvis_tx	pelvis_ty	pelvis_tz	bb_angle	bb_tx	bb_ty	bb_tz	hip_flexion_r	hip_adduction_r	hip_rotation_r	knee_angle_r	knee_angle_r_beta	ankle_angle_r	subtalar_angle_r	mtp_angle_r	crank_angle_r	hip_flexion_l	hip_adduction_l	hip_rotation_l	knee_angle_l	knee_angle_l_beta	ankle_angle_l	subtalar_angle_l	mtp_angle_l	crank_angle_l	lumbar_extension	lumbar_bending	lumbar_rotation	arm_flex_r	arm_add_r	arm_rot_r	elbow_flex_r	pro_sup_r	wrist_flex_r	wrist_dev_r	arm_flex_l	arm_add_l	arm_rot_l	elbow_flex_l	pro_sup_l	wrist_flex_l	wrist_dev_l
      5.00500000	    -14.33377742	     -2.52613454	      4.51867367	      0.17659151	      1.08492942	     -0.24510495	      0.00000000	      0.50000000	      0.00000000	      0.25000000	     85.12519344	     -3.62744789	      2.06401835	    121.16002705	      2.11464139	     -6.49316834	    -18.69904122	      0.00000000	      0.00000000	     46.24515600	     -3.17591716	      3.97032521	     41.88624267	      0.73105285	     -9.98080785	    -10.82663642	      0.00000000	      0.00000000	    -68.54814056	      2.80848281	      0.98003793	     73.41635885	    -18.42728670	     12.36634622	     79.35938647	     49.48232147	      0.00000000	      0.00000000	     81.98609400	    -22.26976413	     36.90826376	     76.03356467	     47.63742022	      0.00000000	      0.00000000
      5.01000000	    -14.34104771	     -2.31049991	      4.17289619	      0.17678621	      1.08537976	     -0.24543001	      0.00000000	      0.50000000	      0.00000000	      0.25000000	     86.22818962	     -3.61511366	      2.38502062	    121.66356539	      2.12342980	     -5.01131857	    -18.05332321	      0.00000000	      0.00000000	     45.21214116	     -3.56459067	      2.86096837	     41.27940946	      0.72046161	    -10.06440700	     -9.78697516	      0.00000000	      0.00000000	    -68.65768387	      2.80074186	      0.67406894	     73.82433634	    -18.19918247	     13.42131322	     79.32613391	     49.62830904	      0.00000000	      0.00000000	     81.49798865	    -22.92377199	     36.03113159	     76.69195685	     47.70952048	      0.00000000	      0.00000000
      5.01500000	    -14.46744899	     -2.36154699	      3.97691200	      0.17654978	      1.08570489	     -0.24608158	      0.00000000	      0.50000000	      0.00000000	      0.25000000	     87.39469334	     -3.65969313	      2.36517835	    121.92667593	      2.12802194	     -4.02184548	    -17.99971805	      0.00000000	      0.00000000	     44.51381280	     -3.94916720	      2.23298972	     40.89467006	      0.71374664	    -10.40104945	     -9.21911845	      0.00000000	      0.00000000	    -68.67957795	      3.11530099	      0.50612806	     74.57451530	    -17.81486629	     14.46189921	     78.79958965	     49.75279667	      0.00000000	      0.00000000	     80.84445405	    -23.74181556	     35.08997322	     77.75351154	     47.89131462	      0.00000000	      0.00000000
      5.02000000	    -14.57779085	     -2.32674112	      3.68483170	      0.17642754	      1.08625395	     -0.24646502	      0.00000000	      0.50000000	      0.00000000	      0.25000000	     88.47353484	     -3.59082191	      2.43594888	    122.00481159	      2.12938567	     -3.19378494	    -17.96560005	      0.00000000	      0.00000000	     43.84603038	     -4.34015356	      1.46370160	     40.67102269	      0.70984326	    -10.67226469	     -8.70046794	      0.00000000	      0.00000000	    -68.71819661	      3.22261511	      0.57563614	     74.89851702	    -17.58808106	     14.77000025	     78.84246633	     49.82312157	      0.00000000	      0.00000000	     80.70608490	    -24.06222121	     34.88823062	     77.74320113	     47.90063890	      0.00000000	      0.00000000
      5.02500000	    -14.59251601	     -2.32685854	      3.58324046	      0.17635149	      1.08695653	     -0.24720280	      0.00000000	      0.50000000	      0.00000000	      0.25000000	     89.39573884	     -3.77628458	      2.41384895	    121.93463498	      2.12816085	     -2.64768073	    -18.08637333	      0.00000000	      0.00000000	     43.22188440	     -4.59276159	      0.91784594	     40.66077218	      0.70966435	    -10.97655511	     -8.37462145	      0.00000000	      0.00000000	    -68.86443626	      3.47665538	      0.73390717	     75.21312933	    -17.49880121	     14.87261299	     78.91554781	     49.84941176	      0.00000000	      0.00000000	     80.67140295	    -24.21001338	     34.78329565	     77.72668457	     47.89558592	      0.00000000	      0.00000000
      5.03000000	    -14.66166015	     -2.35464105	      3.31097993	      0.17608242	      1.08775402	     -0.24775320	      0.00000000	      0.50000000	      0.00000000	      0.25000000	     90.17688106	     -3.68926056	      2.44857191	    121.61153827	      2.12252175	     -1.85957098	    -17.97122671	      0.00000000	      0.00000000	     42.76521251	     -4.96480607	      0.33043024	     40.86081802	      0.71315581	    -11.27326818	     -8.04667404	      0.00000000	      0.00000000	    -69.01455412	      3.60502186	      0.88796543	     75.68108299	    -17.36455421	     15.14418184	     79.00148398	     49.89578639	      0.00000000	      0.00000000	     80.64557807	    -24.48353487	     34.55868720	     77.75245157	     47.88974339	      0.00000000	      0.00000000
      5.03500000	    -14.66533034	     -2.31621602	      3.21392245	      0.17579973	      1.08874583	     -0.24865720	      0.00000000	      0.50000000	      0.00000000	      0.25000000	     90.80026980	     -3.86764718	      2.52276951	    121.10299450	      2.11364599	     -1.53997472	    -17.99634837	      0.00000000	      0.00000000	     42.28934478	     -5.04478965	      0.10199158	     41.14559989	      0.71812619	    -11.36564154	     -7.99160182	      0.00000000	      0.00000000	    -69.18531538	      3.78736332	      0.99842388	     75.75135095	    -17.32177453	     15.20672748	     78.99446260	     49.90172988	      0.00000000	      0.00000000	     80.65766888	    -24.54740106	     34.50669395	     77.75743589	     47.88739320	      0.00000000	      0.00000000
